<mxfile host="www.draw.io" modified="2020-02-28T13:39:55.345Z" agent="Mozilla/5.0 (Windows NT 10.0; Win64; x64) AppleWebKit/537.36 (KHTML, like Gecko) Chrome/80.0.3987.122 Safari/537.36" etag="EeJMThnVRXDoCd6DkBgu" version="12.7.9" type="github">
  <diagram id="IcP_YzKI_qPO864KcuZc" name="第 1 页">
    <mxGraphModel dx="1865" dy="499" grid="1" gridSize="10" guides="1" tooltips="1" connect="1" arrows="1" fold="1" page="1" pageScale="1" pageWidth="827" pageHeight="1169" math="0" shadow="0">
      <root>
        <mxCell id="0" />
        <mxCell id="1" parent="0" />
        <mxCell id="qbQzeHKEJnsvs_nKsw_7-1" value="教师端" style="shape=umlActor;verticalLabelPosition=bottom;labelBackgroundColor=#ffffff;verticalAlign=top;html=1;outlineConnect=0;" vertex="1" parent="1">
          <mxGeometry x="399" y="220" width="30" height="60" as="geometry" />
        </mxCell>
        <mxCell id="qbQzeHKEJnsvs_nKsw_7-47" style="rounded=0;orthogonalLoop=1;jettySize=auto;html=1;exitX=1;exitY=0;exitDx=0;exitDy=0;entryX=0;entryY=1;entryDx=0;entryDy=0;dashed=1;" edge="1" parent="1" source="qbQzeHKEJnsvs_nKsw_7-2" target="qbQzeHKEJnsvs_nKsw_7-11">
          <mxGeometry relative="1" as="geometry" />
        </mxCell>
        <mxCell id="qbQzeHKEJnsvs_nKsw_7-48" style="edgeStyle=none;rounded=0;orthogonalLoop=1;jettySize=auto;html=1;exitX=1;exitY=0;exitDx=0;exitDy=0;entryX=0;entryY=1;entryDx=0;entryDy=0;dashed=1;" edge="1" parent="1" source="qbQzeHKEJnsvs_nKsw_7-2" target="qbQzeHKEJnsvs_nKsw_7-13">
          <mxGeometry relative="1" as="geometry" />
        </mxCell>
        <mxCell id="qbQzeHKEJnsvs_nKsw_7-49" style="edgeStyle=none;rounded=0;orthogonalLoop=1;jettySize=auto;html=1;exitX=1;exitY=0;exitDx=0;exitDy=0;dashed=1;" edge="1" parent="1" source="qbQzeHKEJnsvs_nKsw_7-2" target="qbQzeHKEJnsvs_nKsw_7-14">
          <mxGeometry relative="1" as="geometry" />
        </mxCell>
        <mxCell id="qbQzeHKEJnsvs_nKsw_7-50" style="edgeStyle=none;rounded=0;orthogonalLoop=1;jettySize=auto;html=1;exitX=1;exitY=0;exitDx=0;exitDy=0;dashed=1;" edge="1" parent="1" source="qbQzeHKEJnsvs_nKsw_7-2" target="qbQzeHKEJnsvs_nKsw_7-15">
          <mxGeometry relative="1" as="geometry" />
        </mxCell>
        <mxCell id="qbQzeHKEJnsvs_nKsw_7-51" style="edgeStyle=none;rounded=0;orthogonalLoop=1;jettySize=auto;html=1;exitX=1;exitY=0.5;exitDx=0;exitDy=0;dashed=1;" edge="1" parent="1" source="qbQzeHKEJnsvs_nKsw_7-2" target="qbQzeHKEJnsvs_nKsw_7-16">
          <mxGeometry relative="1" as="geometry" />
        </mxCell>
        <mxCell id="qbQzeHKEJnsvs_nKsw_7-2" value="团队管理" style="ellipse;whiteSpace=wrap;html=1;" vertex="1" parent="1">
          <mxGeometry x="490" y="180" width="100" height="50" as="geometry" />
        </mxCell>
        <mxCell id="qbQzeHKEJnsvs_nKsw_7-3" value="录入团队" style="ellipse;whiteSpace=wrap;html=1;" vertex="1" parent="1">
          <mxGeometry x="520" y="270" width="100" height="50" as="geometry" />
        </mxCell>
        <mxCell id="qbQzeHKEJnsvs_nKsw_7-52" style="edgeStyle=none;rounded=0;orthogonalLoop=1;jettySize=auto;html=1;exitX=1;exitY=0.5;exitDx=0;exitDy=0;dashed=1;" edge="1" parent="1" source="qbQzeHKEJnsvs_nKsw_7-4" target="qbQzeHKEJnsvs_nKsw_7-17">
          <mxGeometry relative="1" as="geometry" />
        </mxCell>
        <mxCell id="qbQzeHKEJnsvs_nKsw_7-53" style="edgeStyle=none;rounded=0;orthogonalLoop=1;jettySize=auto;html=1;exitX=1;exitY=0.5;exitDx=0;exitDy=0;dashed=1;" edge="1" parent="1" source="qbQzeHKEJnsvs_nKsw_7-4" target="qbQzeHKEJnsvs_nKsw_7-18">
          <mxGeometry relative="1" as="geometry" />
        </mxCell>
        <mxCell id="qbQzeHKEJnsvs_nKsw_7-54" style="edgeStyle=none;rounded=0;orthogonalLoop=1;jettySize=auto;html=1;exitX=1;exitY=0.5;exitDx=0;exitDy=0;entryX=0.125;entryY=0.4;entryDx=0;entryDy=0;entryPerimeter=0;dashed=1;" edge="1" parent="1" source="qbQzeHKEJnsvs_nKsw_7-4" target="qbQzeHKEJnsvs_nKsw_7-22">
          <mxGeometry relative="1" as="geometry" />
        </mxCell>
        <mxCell id="qbQzeHKEJnsvs_nKsw_7-55" style="edgeStyle=none;rounded=0;orthogonalLoop=1;jettySize=auto;html=1;exitX=1;exitY=0.5;exitDx=0;exitDy=0;entryX=0.5;entryY=0;entryDx=0;entryDy=0;dashed=1;" edge="1" parent="1" source="qbQzeHKEJnsvs_nKsw_7-4" target="qbQzeHKEJnsvs_nKsw_7-23">
          <mxGeometry relative="1" as="geometry" />
        </mxCell>
        <mxCell id="qbQzeHKEJnsvs_nKsw_7-56" style="edgeStyle=none;rounded=0;orthogonalLoop=1;jettySize=auto;html=1;exitX=0.5;exitY=1;exitDx=0;exitDy=0;dashed=1;" edge="1" parent="1" source="qbQzeHKEJnsvs_nKsw_7-4" target="qbQzeHKEJnsvs_nKsw_7-24">
          <mxGeometry relative="1" as="geometry" />
        </mxCell>
        <mxCell id="qbQzeHKEJnsvs_nKsw_7-4" value="表格管理" style="ellipse;whiteSpace=wrap;html=1;" vertex="1" parent="1">
          <mxGeometry x="440" y="340" width="100" height="50" as="geometry" />
        </mxCell>
        <mxCell id="qbQzeHKEJnsvs_nKsw_7-57" style="edgeStyle=none;rounded=0;orthogonalLoop=1;jettySize=auto;html=1;exitX=0.5;exitY=1;exitDx=0;exitDy=0;dashed=1;" edge="1" parent="1" source="qbQzeHKEJnsvs_nKsw_7-5" target="qbQzeHKEJnsvs_nKsw_7-25">
          <mxGeometry relative="1" as="geometry" />
        </mxCell>
        <mxCell id="qbQzeHKEJnsvs_nKsw_7-58" style="edgeStyle=none;rounded=0;orthogonalLoop=1;jettySize=auto;html=1;exitX=0.5;exitY=1;exitDx=0;exitDy=0;dashed=1;" edge="1" parent="1" source="qbQzeHKEJnsvs_nKsw_7-5" target="qbQzeHKEJnsvs_nKsw_7-26">
          <mxGeometry relative="1" as="geometry" />
        </mxCell>
        <mxCell id="qbQzeHKEJnsvs_nKsw_7-5" value="资讯管理" style="ellipse;whiteSpace=wrap;html=1;" vertex="1" parent="1">
          <mxGeometry x="290" y="350" width="100" height="50" as="geometry" />
        </mxCell>
        <mxCell id="qbQzeHKEJnsvs_nKsw_7-59" style="edgeStyle=none;rounded=0;orthogonalLoop=1;jettySize=auto;html=1;exitX=0.5;exitY=1;exitDx=0;exitDy=0;dashed=1;" edge="1" parent="1" source="qbQzeHKEJnsvs_nKsw_7-6" target="qbQzeHKEJnsvs_nKsw_7-29">
          <mxGeometry relative="1" as="geometry" />
        </mxCell>
        <mxCell id="qbQzeHKEJnsvs_nKsw_7-60" style="edgeStyle=none;rounded=0;orthogonalLoop=1;jettySize=auto;html=1;exitX=0.5;exitY=1;exitDx=0;exitDy=0;dashed=1;" edge="1" parent="1" source="qbQzeHKEJnsvs_nKsw_7-6" target="qbQzeHKEJnsvs_nKsw_7-28">
          <mxGeometry relative="1" as="geometry" />
        </mxCell>
        <mxCell id="qbQzeHKEJnsvs_nKsw_7-61" style="edgeStyle=none;rounded=0;orthogonalLoop=1;jettySize=auto;html=1;exitX=0.5;exitY=1;exitDx=0;exitDy=0;dashed=1;" edge="1" parent="1" source="qbQzeHKEJnsvs_nKsw_7-6" target="qbQzeHKEJnsvs_nKsw_7-30">
          <mxGeometry relative="1" as="geometry" />
        </mxCell>
        <mxCell id="qbQzeHKEJnsvs_nKsw_7-62" style="edgeStyle=none;rounded=0;orthogonalLoop=1;jettySize=auto;html=1;exitX=0;exitY=0.5;exitDx=0;exitDy=0;dashed=1;" edge="1" parent="1" source="qbQzeHKEJnsvs_nKsw_7-6" target="qbQzeHKEJnsvs_nKsw_7-32">
          <mxGeometry relative="1" as="geometry" />
        </mxCell>
        <mxCell id="qbQzeHKEJnsvs_nKsw_7-6" value="赛事管理" style="ellipse;whiteSpace=wrap;html=1;" vertex="1" parent="1">
          <mxGeometry x="199" y="270" width="100" height="50" as="geometry" />
        </mxCell>
        <mxCell id="qbQzeHKEJnsvs_nKsw_7-65" style="edgeStyle=none;rounded=0;orthogonalLoop=1;jettySize=auto;html=1;exitX=0;exitY=0.5;exitDx=0;exitDy=0;entryX=0.992;entryY=0.72;entryDx=0;entryDy=0;entryPerimeter=0;dashed=1;" edge="1" parent="1" source="qbQzeHKEJnsvs_nKsw_7-7" target="qbQzeHKEJnsvs_nKsw_7-35">
          <mxGeometry relative="1" as="geometry" />
        </mxCell>
        <mxCell id="qbQzeHKEJnsvs_nKsw_7-7" value="导师管理" style="ellipse;whiteSpace=wrap;html=1;" vertex="1" parent="1">
          <mxGeometry x="220" y="190" width="100" height="50" as="geometry" />
        </mxCell>
        <mxCell id="qbQzeHKEJnsvs_nKsw_7-66" style="edgeStyle=none;rounded=0;orthogonalLoop=1;jettySize=auto;html=1;exitX=0;exitY=0.5;exitDx=0;exitDy=0;entryX=1;entryY=1;entryDx=0;entryDy=0;dashed=1;" edge="1" parent="1" source="qbQzeHKEJnsvs_nKsw_7-8" target="qbQzeHKEJnsvs_nKsw_7-36">
          <mxGeometry relative="1" as="geometry" />
        </mxCell>
        <mxCell id="qbQzeHKEJnsvs_nKsw_7-67" style="edgeStyle=none;rounded=0;orthogonalLoop=1;jettySize=auto;html=1;exitX=0;exitY=0.5;exitDx=0;exitDy=0;entryX=0.355;entryY=1.008;entryDx=0;entryDy=0;entryPerimeter=0;dashed=1;" edge="1" parent="1" source="qbQzeHKEJnsvs_nKsw_7-8" target="qbQzeHKEJnsvs_nKsw_7-38">
          <mxGeometry relative="1" as="geometry" />
        </mxCell>
        <mxCell id="qbQzeHKEJnsvs_nKsw_7-8" value="封面管理" style="ellipse;whiteSpace=wrap;html=1;" vertex="1" parent="1">
          <mxGeometry x="290" y="120" width="100" height="50" as="geometry" />
        </mxCell>
        <mxCell id="qbQzeHKEJnsvs_nKsw_7-68" style="edgeStyle=none;rounded=0;orthogonalLoop=1;jettySize=auto;html=1;exitX=0.5;exitY=0;exitDx=0;exitDy=0;entryX=0.5;entryY=1;entryDx=0;entryDy=0;dashed=1;" edge="1" parent="1" source="qbQzeHKEJnsvs_nKsw_7-9" target="qbQzeHKEJnsvs_nKsw_7-37">
          <mxGeometry relative="1" as="geometry" />
        </mxCell>
        <mxCell id="qbQzeHKEJnsvs_nKsw_7-9" value="助理" style="ellipse;whiteSpace=wrap;html=1;" vertex="1" parent="1">
          <mxGeometry x="410" y="110" width="100" height="50" as="geometry" />
        </mxCell>
        <mxCell id="qbQzeHKEJnsvs_nKsw_7-11" value="审核入驻表格" style="ellipse;whiteSpace=wrap;html=1;" vertex="1" parent="1">
          <mxGeometry x="590" y="70" width="80" height="50" as="geometry" />
        </mxCell>
        <mxCell id="qbQzeHKEJnsvs_nKsw_7-13" value="修改入驻团队" style="ellipse;whiteSpace=wrap;html=1;" vertex="1" parent="1">
          <mxGeometry x="620" y="120" width="80" height="50" as="geometry" />
        </mxCell>
        <mxCell id="qbQzeHKEJnsvs_nKsw_7-14" value="查看入驻团队" style="ellipse;whiteSpace=wrap;html=1;" vertex="1" parent="1">
          <mxGeometry x="670" y="160" width="80" height="50" as="geometry" />
        </mxCell>
        <mxCell id="qbQzeHKEJnsvs_nKsw_7-15" value="查看退出团队" style="ellipse;whiteSpace=wrap;html=1;" vertex="1" parent="1">
          <mxGeometry x="680" y="210" width="80" height="50" as="geometry" />
        </mxCell>
        <mxCell id="qbQzeHKEJnsvs_nKsw_7-16" value="修改退出团队" style="ellipse;whiteSpace=wrap;html=1;" vertex="1" parent="1">
          <mxGeometry x="670" y="270" width="80" height="50" as="geometry" />
        </mxCell>
        <mxCell id="qbQzeHKEJnsvs_nKsw_7-17" value="增加评分表" style="ellipse;whiteSpace=wrap;html=1;" vertex="1" parent="1">
          <mxGeometry x="630" y="370" width="80" height="50" as="geometry" />
        </mxCell>
        <mxCell id="qbQzeHKEJnsvs_nKsw_7-18" value="填写评分表" style="ellipse;whiteSpace=wrap;html=1;" vertex="1" parent="1">
          <mxGeometry x="600" y="430" width="80" height="50" as="geometry" />
        </mxCell>
        <mxCell id="qbQzeHKEJnsvs_nKsw_7-22" value="增加自查表" style="ellipse;whiteSpace=wrap;html=1;" vertex="1" parent="1">
          <mxGeometry x="580" y="480" width="80" height="50" as="geometry" />
        </mxCell>
        <mxCell id="qbQzeHKEJnsvs_nKsw_7-23" value="审核自查表" style="ellipse;whiteSpace=wrap;html=1;" vertex="1" parent="1">
          <mxGeometry x="510" y="500" width="80" height="50" as="geometry" />
        </mxCell>
        <mxCell id="qbQzeHKEJnsvs_nKsw_7-24" value="审核退出表" style="ellipse;whiteSpace=wrap;html=1;" vertex="1" parent="1">
          <mxGeometry x="429" y="500" width="80" height="50" as="geometry" />
        </mxCell>
        <mxCell id="qbQzeHKEJnsvs_nKsw_7-25" value="编写资讯" style="ellipse;whiteSpace=wrap;html=1;" vertex="1" parent="1">
          <mxGeometry x="349" y="490" width="80" height="50" as="geometry" />
        </mxCell>
        <mxCell id="qbQzeHKEJnsvs_nKsw_7-26" value="查看资讯" style="ellipse;whiteSpace=wrap;html=1;" vertex="1" parent="1">
          <mxGeometry x="260" y="480" width="80" height="50" as="geometry" />
        </mxCell>
        <mxCell id="qbQzeHKEJnsvs_nKsw_7-27" value="添加分类" style="ellipse;whiteSpace=wrap;html=1;" vertex="1" parent="1">
          <mxGeometry x="160" y="430" width="80" height="50" as="geometry" />
        </mxCell>
        <mxCell id="qbQzeHKEJnsvs_nKsw_7-28" value="查看分类" style="ellipse;whiteSpace=wrap;html=1;" vertex="1" parent="1">
          <mxGeometry x="100" y="400" width="80" height="50" as="geometry" />
        </mxCell>
        <mxCell id="qbQzeHKEJnsvs_nKsw_7-29" value="添加分类" style="ellipse;whiteSpace=wrap;html=1;" vertex="1" parent="1">
          <mxGeometry x="160" y="430" width="80" height="50" as="geometry" />
        </mxCell>
        <mxCell id="qbQzeHKEJnsvs_nKsw_7-30" value="添加赛事" style="ellipse;whiteSpace=wrap;html=1;" vertex="1" parent="1">
          <mxGeometry x="70" y="340" width="80" height="50" as="geometry" />
        </mxCell>
        <mxCell id="qbQzeHKEJnsvs_nKsw_7-63" style="edgeStyle=none;rounded=0;orthogonalLoop=1;jettySize=auto;html=1;exitX=0;exitY=0.5;exitDx=0;exitDy=0;entryX=1;entryY=1;entryDx=0;entryDy=0;dashed=1;" edge="1" parent="1" source="qbQzeHKEJnsvs_nKsw_7-32" target="qbQzeHKEJnsvs_nKsw_7-33">
          <mxGeometry relative="1" as="geometry" />
        </mxCell>
        <mxCell id="qbQzeHKEJnsvs_nKsw_7-64" style="edgeStyle=none;rounded=0;orthogonalLoop=1;jettySize=auto;html=1;exitX=0;exitY=0.5;exitDx=0;exitDy=0;entryX=1;entryY=0.5;entryDx=0;entryDy=0;dashed=1;" edge="1" parent="1" source="qbQzeHKEJnsvs_nKsw_7-32" target="qbQzeHKEJnsvs_nKsw_7-34">
          <mxGeometry relative="1" as="geometry" />
        </mxCell>
        <mxCell id="qbQzeHKEJnsvs_nKsw_7-32" value="查看赛事" style="ellipse;whiteSpace=wrap;html=1;" vertex="1" parent="1">
          <mxGeometry x="50" y="290" width="80" height="50" as="geometry" />
        </mxCell>
        <mxCell id="qbQzeHKEJnsvs_nKsw_7-33" value="开始报名" style="ellipse;whiteSpace=wrap;html=1;" vertex="1" parent="1">
          <mxGeometry x="-60" y="260" width="80" height="50" as="geometry" />
        </mxCell>
        <mxCell id="qbQzeHKEJnsvs_nKsw_7-34" value="关闭报名" style="ellipse;whiteSpace=wrap;html=1;" vertex="1" parent="1">
          <mxGeometry x="-70" y="340" width="80" height="50" as="geometry" />
        </mxCell>
        <mxCell id="qbQzeHKEJnsvs_nKsw_7-35" value="添加导师" style="ellipse;whiteSpace=wrap;html=1;" vertex="1" parent="1">
          <mxGeometry x="90" y="180" width="80" height="50" as="geometry" />
        </mxCell>
        <mxCell id="qbQzeHKEJnsvs_nKsw_7-36" value="添加轮播" style="ellipse;whiteSpace=wrap;html=1;" vertex="1" parent="1">
          <mxGeometry x="180" y="70" width="80" height="50" as="geometry" />
        </mxCell>
        <mxCell id="qbQzeHKEJnsvs_nKsw_7-37" value="添加助理" style="ellipse;whiteSpace=wrap;html=1;" vertex="1" parent="1">
          <mxGeometry x="414" y="20" width="80" height="50" as="geometry" />
        </mxCell>
        <mxCell id="qbQzeHKEJnsvs_nKsw_7-38" value="查看轮播" style="ellipse;whiteSpace=wrap;html=1;" vertex="1" parent="1">
          <mxGeometry x="269" y="40" width="80" height="50" as="geometry" />
        </mxCell>
        <mxCell id="qbQzeHKEJnsvs_nKsw_7-39" value="" style="endArrow=none;html=1;entryX=0;entryY=0.5;entryDx=0;entryDy=0;exitX=0.5;exitY=0.5;exitDx=0;exitDy=0;exitPerimeter=0;" edge="1" parent="1" source="qbQzeHKEJnsvs_nKsw_7-1" target="qbQzeHKEJnsvs_nKsw_7-2">
          <mxGeometry width="50" height="50" relative="1" as="geometry">
            <mxPoint x="390" y="280" as="sourcePoint" />
            <mxPoint x="440" y="230" as="targetPoint" />
          </mxGeometry>
        </mxCell>
        <mxCell id="qbQzeHKEJnsvs_nKsw_7-40" value="" style="endArrow=none;html=1;entryX=0;entryY=0.5;entryDx=0;entryDy=0;exitX=0.5;exitY=0.5;exitDx=0;exitDy=0;exitPerimeter=0;" edge="1" parent="1" source="qbQzeHKEJnsvs_nKsw_7-1" target="qbQzeHKEJnsvs_nKsw_7-3">
          <mxGeometry width="50" height="50" relative="1" as="geometry">
            <mxPoint x="424" y="260" as="sourcePoint" />
            <mxPoint x="500" y="215" as="targetPoint" />
          </mxGeometry>
        </mxCell>
        <mxCell id="qbQzeHKEJnsvs_nKsw_7-41" value="" style="endArrow=none;html=1;entryX=0.39;entryY=-0.048;entryDx=0;entryDy=0;exitX=0.5;exitY=0.5;exitDx=0;exitDy=0;exitPerimeter=0;entryPerimeter=0;" edge="1" parent="1" source="qbQzeHKEJnsvs_nKsw_7-1" target="qbQzeHKEJnsvs_nKsw_7-4">
          <mxGeometry width="50" height="50" relative="1" as="geometry">
            <mxPoint x="424" y="260" as="sourcePoint" />
            <mxPoint x="530" y="305" as="targetPoint" />
          </mxGeometry>
        </mxCell>
        <mxCell id="qbQzeHKEJnsvs_nKsw_7-42" value="" style="endArrow=none;html=1;entryX=0.5;entryY=0;entryDx=0;entryDy=0;exitX=0.5;exitY=0.5;exitDx=0;exitDy=0;exitPerimeter=0;" edge="1" parent="1" source="qbQzeHKEJnsvs_nKsw_7-1" target="qbQzeHKEJnsvs_nKsw_7-5">
          <mxGeometry width="50" height="50" relative="1" as="geometry">
            <mxPoint x="424" y="260" as="sourcePoint" />
            <mxPoint x="489" y="347.6" as="targetPoint" />
          </mxGeometry>
        </mxCell>
        <mxCell id="qbQzeHKEJnsvs_nKsw_7-43" value="" style="endArrow=none;html=1;entryX=1;entryY=0.5;entryDx=0;entryDy=0;exitX=0.5;exitY=0.5;exitDx=0;exitDy=0;exitPerimeter=0;" edge="1" parent="1" source="qbQzeHKEJnsvs_nKsw_7-1" target="qbQzeHKEJnsvs_nKsw_7-6">
          <mxGeometry width="50" height="50" relative="1" as="geometry">
            <mxPoint x="424" y="260" as="sourcePoint" />
            <mxPoint x="350" y="360" as="targetPoint" />
          </mxGeometry>
        </mxCell>
        <mxCell id="qbQzeHKEJnsvs_nKsw_7-44" value="" style="endArrow=none;html=1;entryX=0.982;entryY=0.696;entryDx=0;entryDy=0;exitX=0.5;exitY=0.5;exitDx=0;exitDy=0;exitPerimeter=0;entryPerimeter=0;" edge="1" parent="1" source="qbQzeHKEJnsvs_nKsw_7-1" target="qbQzeHKEJnsvs_nKsw_7-7">
          <mxGeometry width="50" height="50" relative="1" as="geometry">
            <mxPoint x="424" y="260" as="sourcePoint" />
            <mxPoint x="309" y="305" as="targetPoint" />
          </mxGeometry>
        </mxCell>
        <mxCell id="qbQzeHKEJnsvs_nKsw_7-45" value="" style="endArrow=none;html=1;entryX=0.642;entryY=1.024;entryDx=0;entryDy=0;entryPerimeter=0;" edge="1" parent="1" source="qbQzeHKEJnsvs_nKsw_7-1" target="qbQzeHKEJnsvs_nKsw_7-8">
          <mxGeometry width="50" height="50" relative="1" as="geometry">
            <mxPoint x="410" y="250" as="sourcePoint" />
            <mxPoint x="328.1999999999998" y="234.79999999999995" as="targetPoint" />
          </mxGeometry>
        </mxCell>
        <mxCell id="qbQzeHKEJnsvs_nKsw_7-46" value="" style="endArrow=none;html=1;entryX=0.5;entryY=1;entryDx=0;entryDy=0;" edge="1" parent="1" target="qbQzeHKEJnsvs_nKsw_7-9">
          <mxGeometry width="50" height="50" relative="1" as="geometry">
            <mxPoint x="409" y="250" as="sourcePoint" />
            <mxPoint x="364.1999999999998" y="181.20000000000005" as="targetPoint" />
          </mxGeometry>
        </mxCell>
      </root>
    </mxGraphModel>
  </diagram>
</mxfile>
